<svg width="42" height="40" viewBox="0 0 42 40" fill="none" xmlns="http://www.w3.org/2000/svg" xmlns:xlink="http://www.w3.org/1999/xlink">
<path d="M31.25,18.333C31.25,24.502 25.97,29.667 19.25,29.667L19.25,33.667C27.993,33.667 35.25,26.893 35.25,18.333L31.25,18.333ZM19.25,29.667C12.53,29.667 7.25,24.502 7.25,18.333L3.25,18.333C3.25,26.893 10.507,33.667 19.25,33.667L19.25,29.667ZM7.25,18.333C7.25,12.165 12.53,7 19.25,7L19.25,3C10.507,3 3.25,9.774 3.25,18.333L7.25,18.333ZM19.25,7C25.97,7 31.25,12.165 31.25,18.333L35.25,18.333C35.25,9.774 27.993,3 19.25,3L19.25,7Z" fill="#000000"/>
<path d="M35.371,36.448C36.171,37.21 37.436,37.179 38.198,36.379C38.96,35.579 38.929,34.313 38.129,33.552L35.371,36.448ZM30.517,26.302C29.717,25.54 28.451,25.571 27.689,26.371C26.927,27.171 26.958,28.437 27.758,29.198L30.517,26.302ZM38.129,33.552L30.517,26.302L27.758,29.198L35.371,36.448L38.129,33.552Z" fill="#000000"/>
</svg>
